<svg xmlns="http://www.w3.org/2000/svg" xmlns:xlink="http://www.w3.org/1999/xlink" width="200" height="148.93" viewBox="0 0 200 148.93"><defs><clipPath id="a"><rect width="200" height="148.93" fill="none"/></clipPath></defs><g clip-path="url(#a)"><path d="M30.81,187.339c1.357,0,1.357.745,1.357,2.232,0,9.191-6.565,15.756-15.974,15.756S0,198.718,0,189.571s6.783-15.756,16.193-15.756c7,0,13.042,4.115,14.967,9.935.306.919-.219,1.487-1.138,1.487h-6.74a1.8,1.8,0,0,1-1.575-.875,6.485,6.485,0,0,0-5.471-2.845c-4.158,0-7.133,3.37-7.133,8.008s2.976,8.009,7.133,8.009a6.442,6.442,0,0,0,6.084-3.588H17.55a1.2,1.2,0,0,1-1.313-1.313v-3.984a1.2,1.2,0,0,1,1.313-1.313Z" transform="translate(0 -78.73)" fill="#4ce5ae"/><path d="M78.917,174.615c6.433,0,11.117,4.551,11.117,10.853,0,6.259-4.683,10.811-11.117,10.811H73.008v7.659a1.2,1.2,0,0,1-1.313,1.313h-6.3a1.2,1.2,0,0,1-1.313-1.313V175.928a1.2,1.2,0,0,1,1.313-1.313ZM77.91,188.751a3.055,3.055,0,0,0,3.02-3.151,2.967,2.967,0,0,0-3.02-3.107h-4.9v6.258Z" transform="translate(-29.025 -79.092)" fill="#fff"/><path d="M136.893,197.373a1.2,1.2,0,0,1,1.313,1.313v5.252a1.2,1.2,0,0,1-1.313,1.313H118.512a1.2,1.2,0,0,1-1.313-1.313V175.928a1.2,1.2,0,0,1,1.313-1.313h6.3a1.2,1.2,0,0,1,1.313,1.313v21.445Z" transform="translate(-53.086 -79.092)" fill="#fff"/><path d="M192.857,203.763c.306.919-.088,1.488-1.05,1.488h-6.915a1.421,1.421,0,0,1-1.488-1.094l-1.225-4.027H172.112l-1.225,4.027a1.421,1.421,0,0,1-1.489,1.094h-6.915c-.963,0-1.357-.569-1.05-1.488l9.891-28.1a1.465,1.465,0,0,1,1.532-1.05h8.577a1.466,1.466,0,0,1,1.532,1.05Zm-18.994-9.452h6.565l-3.282-10.986Z" transform="translate(-73.076 -79.093)" fill="#fff"/><path d="M237.615,174.616c1.051,0,1.4.7.876,1.576l-10.635,17.33v10.416a1.2,1.2,0,0,1-1.313,1.313h-6.3a1.2,1.2,0,0,1-1.312-1.313v-10.11l-10.81-17.637c-.525-.876-.175-1.576.875-1.576h7.222a1.642,1.642,0,0,1,1.532.919l5.558,10.5,5.558-10.5a1.641,1.641,0,0,1,1.532-.919Z" transform="translate(-94.158 -79.093)" fill="#fff"/><path d="M277.646,182.494v3.633h11.2a1.2,1.2,0,0,1,1.313,1.313v4.9a1.2,1.2,0,0,1-1.313,1.313h-11.2v3.72h12.079a1.2,1.2,0,0,1,1.313,1.313v5.251a1.2,1.2,0,0,1-1.313,1.313H270.03a1.2,1.2,0,0,1-1.312-1.313V175.929a1.2,1.2,0,0,1,1.312-1.313h19.694a1.2,1.2,0,0,1,1.313,1.313v5.252a1.2,1.2,0,0,1-1.313,1.313Z" transform="translate(-121.716 -79.093)" fill="#fff"/><path d="M326.688,174.615c9.147,0,15.756,6.433,15.756,15.317s-6.608,15.318-15.756,15.318h-10.9a1.2,1.2,0,0,1-1.312-1.313V175.928a1.2,1.2,0,0,1,1.312-1.313Zm-.087,22.758c3.895,0,6.74-3.151,6.74-7.485,0-4.288-2.845-7.4-6.74-7.4h-3.195v14.88H326.6Z" transform="translate(-142.444 -79.092)" fill="#fff"/><path d="M160.362,0H95.231C76.618,0,61.087,14.78,60.8,33.39a33.895,33.895,0,0,0,57.2,25.153,2.769,2.769,0,0,0,.878-2.01V45.149a1.641,1.641,0,0,0-1.638-1.641l-9.885-.015a1.641,1.641,0,0,0-1.644,1.641v4.821a2.708,2.708,0,0,1-1.433,2.409,20.785,20.785,0,1,1-9.568-39.235c.208,0,.415.01.622.016H121.5l-.013-.016h12.1l-.013.016a33.714,33.714,0,0,0-7.133,20.772c0,.021,0,.042,0,.062h0V73.3a1.641,1.641,0,0,0,1.641,1.641h9.847a1.641,1.641,0,0,0,1.641-1.641V60.688A33.907,33.907,0,1,0,160.362,0m2.257,54.585a20.791,20.791,0,1,1,18.411-18.411,20.812,20.812,0,0,1-18.411,18.411" transform="translate(-27.539)" fill="#fff"/><path d="M239.855,70.5a3.556,3.556,0,1,0,3.556,3.556,3.556,3.556,0,0,0-3.556-3.556" transform="translate(-107.032 -31.933)" fill="#4ce5ae"/><path d="M239.855,40.5a3.556,3.556,0,1,0,3.556,3.556,3.556,3.556,0,0,0-3.556-3.556" transform="translate(-107.032 -18.345)" fill="#4ce5ae"/><path d="M254.855,55.5a3.556,3.556,0,1,0,3.556,3.556,3.556,3.556,0,0,0-3.556-3.556" transform="translate(-113.827 -25.139)" fill="#4ce5ae"/><path d="M224.855,55.5a3.556,3.556,0,1,0,3.556,3.556,3.556,3.556,0,0,0-3.556-3.556" transform="translate(-100.238 -25.139)" fill="#4ce5ae"/><path d="M110.6,64.023h4.923a1.094,1.094,0,0,0,1.094-1.094V55.817h7.112a1.1,1.1,0,0,0,1.094-1.094V49.8a1.094,1.094,0,0,0-1.094-1.094h-7.112V41.594a1.094,1.094,0,0,0-1.094-1.094H110.6a1.094,1.094,0,0,0-1.094,1.094v7.112h-7.112A1.094,1.094,0,0,0,101.3,49.8v4.923a1.094,1.094,0,0,0,1.094,1.094H109.5v7.112a1.094,1.094,0,0,0,1.094,1.094" transform="translate(-45.884 -18.345)" fill="#fff"/><path d="M3.111,261.05,0,255.914H.887l2.6,4.373H3.51L6.1,255.914h.887l-3.1,5.135v3.61H3.111Z" transform="translate(0 -115.917)" fill="#fff"/><path d="M25.944,255.572c2.211,0,3.673,1.836,3.673,4.56s-1.462,4.56-3.673,4.56-3.673-1.836-3.673-4.56,1.462-4.56,3.673-4.56m0,.725c-1.761,0-2.911,1.5-2.911,3.835s1.149,3.835,2.911,3.835,2.911-1.5,2.911-3.835-1.137-3.835-2.911-3.835" transform="translate(-10.088 -115.762)" fill="#fff"/><path d="M47.993,255.915h.762v5.835c0,1.586.763,2.373,2.286,2.373a2.063,2.063,0,0,0,2.312-2.348v-5.86h.775V261.8a2.749,2.749,0,0,1-3.086,3.048,2.726,2.726,0,0,1-3.048-3.048Z" transform="translate(-21.739 -115.917)" fill="#fff"/><path d="M76.154,260.95l1.974,3.711h-.9l-1.911-3.685H73.242v3.685h-.761v-8.746h3.085c1.8,0,2.849.925,2.849,2.511a2.36,2.36,0,0,1-2.262,2.5Zm-.65-.7c1.4,0,2.137-.625,2.137-1.824,0-1.162-.737-1.786-2.137-1.786H73.242v3.611Z" transform="translate(-32.83 -115.917)" fill="#fff"/><path d="M113.228,255.572a3.22,3.22,0,0,1,2.187.762,3.37,3.37,0,0,1,1.124,2.062l-.762.137a2.474,2.474,0,0,0-2.549-2.236c-1.761,0-2.911,1.5-2.911,3.835s1.149,3.835,2.911,3.835c1.687,0,2.636-1.074,2.6-2.923h-2.486v-.725h3.236v.712c0,2.287-1.261,3.661-3.348,3.661-2.211,0-3.673-1.812-3.673-4.56s1.462-4.56,3.673-4.56" transform="translate(-49.623 -115.762)" fill="#fff"/><path d="M138.072,262.8h-4.223l-.674,1.861h-.8l3.211-8.746h.749l3.2,8.746h-.8Zm-.25-.675-1.849-5.172h-.025l-1.861,5.172Z" transform="translate(-59.96 -115.917)" fill="#fff"/><path d="M156.909,255.915h1.037l3.074,7.421h.025l3.073-7.421h1.037v8.746h-.775v-7.534h-.025l-3.149,7.534h-.362l-3.149-7.534h-.025v7.534h-.762Z" transform="translate(-71.072 -115.917)" fill="#fff"/><rect width="0.762" height="8.746" transform="translate(101.406 139.998)" fill="#fff"/><path d="M200.172,255.915h.912l4.348,7.559h.025v-7.559h.775v8.746h-.924l-4.348-7.559h-.025v7.559h-.762Z" transform="translate(-90.669 -115.917)" fill="#fff"/><path d="M227.327,255.572a3.22,3.22,0,0,1,2.187.762,3.371,3.371,0,0,1,1.124,2.062l-.762.137a2.474,2.474,0,0,0-2.549-2.236c-1.761,0-2.911,1.5-2.911,3.835s1.149,3.835,2.911,3.835c1.687,0,2.636-1.074,2.6-2.923H227.44v-.725h3.236v.712c0,2.287-1.262,3.661-3.349,3.661-2.211,0-3.673-1.812-3.673-4.56s1.462-4.56,3.673-4.56" transform="translate(-101.305 -115.762)" fill="#fff"/><path d="M263.935,261.545a2.42,2.42,0,0,0,2.724,2.423c1.349,0,2.223-.636,2.223-1.6,0-1-.637-1.523-2.561-2.123-2.086-.65-2.748-1.237-2.748-2.4,0-1.337,1.112-2.274,2.723-2.274a3.1,3.1,0,0,1,2.049.687,2.749,2.749,0,0,1,1.024,1.811l-.749.151a2.238,2.238,0,0,0-2.336-1.924c-1.161,0-1.949.638-1.949,1.549,0,.774.525,1.186,2.249,1.711,2.286.7,3.061,1.437,3.061,2.8,0,1.412-1.212,2.336-2.986,2.336-2.087,0-3.349-1.086-3.486-3.035Z" transform="translate(-119.204 -115.762)" fill="#fff"/><path d="M287.761,256.639h-2.774v-.725H291.3v.725h-2.761v8.021h-.774Z" transform="translate(-129.086 -115.917)" fill="#fff"/><path d="M310.316,255.572c2.212,0,3.673,1.836,3.673,4.56s-1.462,4.56-3.673,4.56-3.673-1.836-3.673-4.56,1.462-4.56,3.673-4.56m0,.725c-1.761,0-2.911,1.5-2.911,3.835s1.149,3.835,2.911,3.835,2.911-1.5,2.911-3.835-1.137-3.835-2.911-3.835" transform="translate(-138.895 -115.762)" fill="#fff"/><path d="M336.152,260.95l1.974,3.711h-.9l-1.912-3.685h-2.074v3.685h-.762v-8.746h3.085c1.8,0,2.849.925,2.849,2.511a2.36,2.36,0,0,1-2.262,2.5Zm-.65-.7c1.4,0,2.137-.625,2.137-1.824,0-1.162-.738-1.786-2.137-1.786h-2.262v3.611Z" transform="translate(-150.597 -115.917)" fill="#fff"/><path d="M355.942,261.05l-3.111-5.135h.887l2.6,4.373h.025l2.587-4.373h.887l-3.1,5.135v3.61h-.775Z" transform="translate(-159.816 -115.917)" fill="#fff"/></g></svg>