<?xml version="1.0" encoding="UTF-8"?>
<svg id="Calque_1" xmlns="http://www.w3.org/2000/svg" version="1.1" viewBox="0 0 88 88">
  <!-- Generator: Adobe Illustrator 29.8.5, SVG Export Plug-In . SVG Version: 2.1.1 Build 2)  -->
  <defs>
    <style>
      .st0 {
        fill: #fc0;
      }

      .st1 {
        fill: #fff;
      }
    </style>
  </defs>
  <path class="st0" d="M44,87.9C19.79,87.9.1,68.21.1,44S19.79.1,44,.1s43.9,19.69,43.9,43.9-19.69,43.9-43.9,43.9ZM44,4.7C22.33,4.7,4.7,22.33,4.7,44s17.63,39.3,39.3,39.3,39.3-17.63,39.3-39.3S65.67,4.7,44,4.7Z"/>
  <path class="st1" d="M10.7,50.5l6.5-6.8,3.9,3.6c-.7-5.2.5-9.5,3.7-12.9,1.7-1.8,3.5-3,5.5-3.6,2-.6,4.1-.7,6.5-.1-.4-2.6-.2-5,.4-7.1.6-2.1,1.7-4,3.2-5.6,1.9-2.1,4-3.4,6.2-4s4.4-.6,6.7.3c1.7.6,3.9,2.2,6.6,4.7l18.1,16.8-7,7.4-16.2-15c-2.8-2.6-4.9-4-6.2-4.3-1.7-.3-3.2.3-4.6,1.7-1,1-1.6,2.3-1.8,3.8s0,3,1,4.6c.9,1.5,2.6,3.6,5.3,6l13.6,12.6-7,7.4-15.6-14.4c-2.8-2.5-4.7-4.1-5.7-4.5-1.1-.5-2-.6-2.9-.4-.9.2-1.8.8-2.7,1.7-1.1,1.1-1.7,2.5-2,3.9-.2,1.5,0,3,.8,4.5s2.6,3.5,5.3,6l13.8,12.7-7,7.4-28.4-26.2s0-.2,0-.2Z"/>
</svg>